<?xml version="1.0" encoding="UTF-8" standalone="no"?>
<svg
   xmlns:dc="http://purl.org/dc/elements/1.1/"
   xmlns:cc="http://creativecommons.org/ns#"
   xmlns:rdf="http://www.w3.org/1999/02/22-rdf-syntax-ns#"
   xmlns:svg="http://www.w3.org/2000/svg"
   xmlns="http://www.w3.org/2000/svg"
   xmlns:xlink="http://www.w3.org/1999/xlink"
   xmlns:sodipodi="http://sodipodi.sourceforge.net/DTD/sodipodi-0.dtd"
   xmlns:inkscape="http://www.inkscape.org/namespaces/inkscape"
   width="90.726913"
   height="54.168186"
   viewBox="0 0 24.004829 14.331999"
   version="1.1"
   id="svg8"
   sodipodi:docname="logoRed.svg"
   inkscape:version="1.0.1 (3bc2e813f5, 2020-09-07)">
  <defs
     id="defs2">
    <linearGradient
       inkscape:collect="always"
       id="linearGradient864">
      <stop
         style="stop-color:#800000;stop-opacity:1;"
         offset="0"
         id="stop860" />
      <stop
         style="stop-color:#800000;stop-opacity:0;"
         offset="1"
         id="stop862" />
    </linearGradient>
    <linearGradient
       inkscape:collect="always"
       xlink:href="#linearGradient864"
       id="linearGradient866"
       x1="56.959446"
       y1="53.570233"
       x2="146.39712"
       y2="53.570233"
       gradientUnits="userSpaceOnUse" />
  </defs>
  <sodipodi:namedview
     id="base"
     pagecolor="#ffffff"
     bordercolor="#666666"
     borderopacity="1.0"
     inkscape:pageopacity="0.0"
     inkscape:pageshadow="2"
     inkscape:zoom="7.9195959"
     inkscape:cx="51.556277"
     inkscape:cy="16.427231"
     inkscape:document-units="mm"
     inkscape:current-layer="g62"
     inkscape:document-rotation="0"
     showgrid="false"
     inkscape:window-width="1920"
     inkscape:window-height="1001"
     inkscape:window-x="-9"
     inkscape:window-y="-9"
     inkscape:window-maximized="1"
     units="px"
     fit-margin-top="0"
     fit-margin-left="0"
     fit-margin-right="0"
     fit-margin-bottom="0" />
  <metadata
     id="metadata5">
    <rdf:RDF>
      <cc:Work
         rdf:about="">
        <dc:format>image/svg+xml</dc:format>
        <dc:type
           rdf:resource="http://purl.org/dc/dcmitype/StillImage" />
        <dc:title></dc:title>
      </cc:Work>
    </rdf:RDF>
  </metadata>
  <g
     inkscape:label="Layer 1"
     inkscape:groupmode="layer"
     id="layer1"
     transform="translate(-1.1134628,-1.3576996)">
    <g
       id="g62"
       transform="matrix(0.26839729,0,0,0.26839729,-14.174298,-1.1117455)">
      <g
         id="g44"
         transform="matrix(1.8306306,0,0,1.8306306,51.722439,58.872257)">
        <path
           d="m 32.831918,-22.964879 a 0.23494388,0.23340624 0 0 1 -0.05526,-0.0061 4.4681626,4.4389199 0 0 1 -2.123136,-1.163743 4.4676928,4.4384531 0 0 1 -1.2024,-2.091959 0.23500408,0.23346604 0 0 1 0.456148,-0.112557 3.9994496,3.9732745 0 0 0 1.076015,1.871603 4.0017991,3.9756085 0 0 0 1.899503,1.041662 0.23494388,0.23340624 0 0 1 -0.05158,0.460665 z"
           id="path10"
           style="stroke-width:0.234174" />
        <path
           d="m 31.414076,-19.927897 a 0.23259444,0.23107218 0 0 1 -0.127376,-0.03642 0.23494388,0.23340624 0 0 1 -0.07286,-0.322046 c 0.127983,-0.200032 0.25191,-0.408205 0.368774,-0.618427 a 0.23500075,0.23346274 0 0 1 0.411418,0.225749 c -0.121502,0.218425 -0.250538,0.434804 -0.38316,0.642807 a 0.23494388,0.23340624 0 0 1 -0.196795,0.108335 z"
           id="path12"
           style="stroke-width:0.234174" />
        <path
           d="m 24.358702,-14.202273 a 0.23141972,0.22990515 0 0 1 -0.08964,-0.01709 c -1.526295,-0.613032 -2.702714,-1.762893 -3.496598,-3.417377 a 0.23494388,0.23340624 0 0 1 -0.0047,-0.190196 19.614759,19.486387 0 0 1 0.939591,-1.939497 c 0.0051,-0.0089 0.01067,-0.01759 0.01649,-0.02579 a 16.076975,15.971756 0 0 1 2.139531,-2.983884 13.378409,13.290852 0 0 1 5.743347,-3.727864 11.34779,11.273522 0 0 1 3.80296,-0.629424 0.23494388,0.23340624 0 0 1 0.222458,0.217553 11.360946,11.286592 0 0 1 -0.578002,3.786892 c -0.09181,0.293601 -0.197008,0.588934 -0.311888,0.877101 a 0.23494388,0.23340624 0 1 1 -0.436865,-0.171879 c 0.110494,-0.277398 0.211541,-0.56173 0.30038,-0.844572 a 11.715711,11.639036 0 0 0 0.563222,-3.401654 11.706079,11.629466 0 0 0 -3.414977,0.608395 12.9151,12.830575 0 0 0 -5.541768,3.599419 15.602153,15.500042 0 0 0 -2.091825,2.921682 c -0.0051,0.0089 -0.01045,0.01735 -0.01626,0.02556 a 19.059352,18.934614 0 0 0 -0.861893,1.770641 c 0.733176,1.4829 1.752732,2.484753 3.11213,3.054886 a 19.041966,18.917343 0 0 0 1.775569,-0.884956 0.28569175,0.28382199 0 0 1 0.02502,-0.01629 15.610611,15.508444 0 0 0 2.910193,-2.1205 14.195074,14.102172 0 0 0 1.065774,-1.109232 0.23503407,0.23349584 0 0 1 0.357948,0.302698 14.73662,14.640173 0 0 1 -1.10215,1.146843 16.083318,15.978058 0 0 1 -2.972787,2.170905 0.29203524,0.29012396 0 0 1 -0.02526,0.01652 19.633085,19.504592 0 0 1 -1.938058,0.961765 0.23635354,0.23480668 0 0 1 -0.09196,0.01934 z"
           id="path14"
           style="stroke-width:0.234174" />
        <path
           d="m 26.012874,-10.745806 a 0.23494388,0.23340624 0 0 1 -0.208125,-0.344869 4.9845693,4.9519468 0 0 0 0.250881,-4.210488 0.23503271,0.2334945 0 0 1 0.436671,-0.17287 5.450698,5.4150248 0 0 1 -0.007,4.044624 4.9241888,4.8919615 0 0 0 1.025502,-0.676427 5.0073589,4.9745872 0 0 0 1.492332,-5.360679 0.23494388,0.23340624 0 0 1 0.44532,-0.147024 5.4760718,5.4402326 0 0 1 -1.632892,5.862139 5.3461479,5.311159 0 0 1 -1.727782,0.992911 0.23353422,0.2320058 0 0 1 -0.07486,0.01268 z"
           id="path16"
           style="stroke-width:0.234174" />
        <path
           d="m 17.483201,-19.096361 a 0.23494388,0.23340624 0 0 1 -0.22453,-0.307169 5.3437985,5.308825 0 0 1 0.974025,-1.730609 5.4741921,5.4383652 0 0 1 5.876193,-1.707947 0.23494388,0.23340624 0 1 1 -0.141685,0.444516 5.006889,4.9741204 0 0 0 -5.373769,1.562373 4.9302973,4.89803 0 0 0 -0.665779,1.028594 5.4530474,5.4173588 0 0 1 4.070966,-0.06582 0.23496606,0.23342828 0 1 1 -0.167827,0.436069 4.9843343,4.9517134 0 0 0 -4.234328,0.310923 0.23282939,0.23130559 0 0 1 -0.113266,0.02907 z"
           id="path18"
           style="stroke-width:0.234174" />
        <path
           d="m 20.622277,-10.795957 a 0.23494388,0.23340624 0 0 1 -0.16904,-0.397205 l 2.118065,-2.135506 a 0.23494388,0.23340624 0 0 1 0.334636,0.327609 l -2.118065,2.135506 a 0.23494388,0.23340624 0 0 1 -0.165596,0.0696 z"
           id="path20"
           style="stroke-width:0.234174" />
        <path
           d="m 17.612916,-13.742355 a 0.23494388,0.23340624 0 0 1 -0.16904,-0.397204 l 2.118065,-2.135507 a 0.23494388,0.23340624 0 1 1 0.334636,0.327609 l -2.118065,2.135506 a 0.23494388,0.23340624 0 0 1 -0.165596,0.0696 z"
           id="path22"
           style="stroke-width:0.234174" />
        <path
           d="m 18.349382,-11.494819 a 0.23494388,0.23340624 0 0 1 -0.169039,-0.397205 l 2.118299,-2.135507 a 0.23494388,0.23340624 0 0 1 0.334636,0.327609 l -2.1183,2.135507 a 0.23494388,0.23340624 0 0 1 -0.165596,0.0696 z"
           id="path24"
           style="stroke-width:0.234174" />
        <path
           d="m 28.244795,-19.869345 a 1.8351466,1.8231361 0 1 1 1.274838,-3.121603 1.8351466,1.8231361 0 0 1 -1.274838,3.121603 z m -0.02345,-3.179141 a 1.3650239,1.3560902 0 1 0 0.968521,0.38975 1.3570358,1.3481544 0 0 0 -0.968521,-0.38975 z"
           id="path26"
           style="stroke-width:0.234174" />
      </g>
      <text
         xml:space="preserve"
         style="font-style:normal;font-variant:normal;font-weight:normal;font-stretch:normal;font-size:19.7556px;line-height:0;font-family:Roboto;-inkscape-font-specification:Roboto;letter-spacing:0.902229px;fill:url(#linearGradient866);fill-opacity:1;stroke-width:0.264583"
         x="55.184528"
         y="58.586304"
         id="text48"><tspan
           sodipodi:role="line"
           id="tspan46"
           x="55.184528"
           y="58.586304"
           style="font-style:normal;font-variant:normal;font-weight:300;font-stretch:normal;font-size:19.7556px;line-height:0.7;font-family:Roboto;-inkscape-font-specification:'Roboto Light';fill:#800000;fill-opacity:1;stroke-width:0.264583"
           dx="0">MentorUp</tspan></text>
    </g>
  </g>
  <g
     inkscape:groupmode="layer"
     id="layer2"
     inkscape:label="Layer 2"
     transform="translate(-1.1134628,-1.3576996)" />
</svg>
